<svg xmlns="http://www.w3.org/2000/svg" viewBox="0 0 448 512" fill="#4EB290">
  <path d="M224.1 141c-63.6 0-114.9 51.3-114.9 114.9s51.3 114.9 114.9 114.9S339 319.5 339 255.9 287.7 141 224.1 141zm0 189.6c-41.1 0-74.6-33.5-74.6-74.6s33.5-74.6 74.6-74.6 74.6 33.5 74.6 74.6-33.5 74.6-74.6 74.6zm85.9-129.8c-9.7 0-17.7-7.9-17.7-17.7s7.9-17.7 17.7-17.7 17.7 7.9 17.7 17.7-7.9 17.7-17.7 17.7zm76.4-22.9c0-44.2-35.9-80.1-80.1-80.1H107.6c-44.2 0-80.1 35.9-80.1 80.1v240c0 44.2 35.9 80.1 80.1 80.1h198.7c44.2 0 80.1-35.9 80.1-80.1v-240zm-22.9 262.1c0 31.8-25.9 57.7-57.7 57.7H107.6c-31.8 0-57.7-25.9-57.7-57.7v-240c0-31.8 25.9-57.7 57.7-57.7h198.7c31.8 0 57.7 25.9 57.7 57.7v240z"/>
</svg>
