<svg xmlns="http://www.w3.org/2000/svg" viewBox="0 0 24 24" fill="#4eb290" width="24" height="24">
  <path d="M22.46 4.54a9 9 0 0 1-2.58.71 4.54 4.54 0 0 0 2-2.51 9.06 9.06 0 0 1-2.87 1.1 4.53 4.53 0 0 0-7.69 4.13c0 .35.04.7.1 1.05A12.9 12.9 0 0 1 1.54 3.14a4.53 4.53 0 0 0 1.4 6.02 4.5 4.5 0 0 1-2.05-.56v.06a4.53 4.53 0 0 0 3.62 4.43 4.52 4.52 0 0 1-2.02.08 4.54 4.54 0 0 0 4.24 3.15 9.1 9.1 0 0 1-5.62 1.94A9.18 9.18 0 0 1 1 18.99a12.81 12.81 0 0 0 6.93 2.03c8.3 0 12.84-6.9 12.84-12.85 0-.2 0-.41-.01-.61A9.19 9.19 0 0 0 23 4.69a9.15 9.15 0 0 1-1.54.42z"/>
</svg>
